/* XPM */
static char * jgamebase_xpm[] = {
"32 32 184 2",
"  	c None",
". 	c #FFA1A1",
"+ 	c #FFABAB",
"@ 	c #FF0000",
"# 	c #FF0B0B",
"$ 	c #FF9191",
"% 	c #FFA9A9",
"& 	c #FF1D1D",
"* 	c #FE0000",
"= 	c #F10000",
"- 	c #FD0000",
"; 	c #C80000",
"> 	c #E90000",
", 	c #870000",
"' 	c #E00000",
") 	c #520000",
"! 	c #500000",
"~ 	c #160000",
"{ 	c #F20000",
"] 	c #ED0000",
"^ 	c #E60000",
"/ 	c #E10000",
"( 	c #000000",
"_ 	c #936969",
": 	c #FF0909",
"< 	c #E80707",
"[ 	c #7D6E6E",
"} 	c #392F2F",
"| 	c #9D2222",
"1 	c #942323",
"2 	c #343030",
"3 	c #4C4C4C",
"4 	c #696969",
"5 	c #D6D6D6",
"6 	c #161616",
"7 	c #5C5C5C",
"8 	c #727272",
"9 	c #4D4D4D",
"0 	c #1A1A1A",
"a 	c #C6C6C6",
"b 	c #DBDBDB",
"c 	c #171717",
"d 	c #030303",
"e 	c #1F1F1F",
"f 	c #BFBFBF",
"g 	c #080808",
"h 	c #2D2D2D",
"i 	c #0D0D0D",
"j 	c #202020",
"k 	c #BCBCBC",
"l 	c #353535",
"m 	c #090909",
"n 	c #757575",
"o 	c #7A7A7A",
"p 	c #121212",
"q 	c #020202",
"r 	c #151515",
"s 	c #3B3B3B",
"t 	c #131313",
"u 	c #DEDEDE",
"v 	c #170000",
"w 	c #040505",
"x 	c #888989",
"y 	c #7E7E7E",
"z 	c #3E3E3E",
"A 	c #1E1E1E",
"B 	c #070707",
"C 	c #646464",
"D 	c #E0E0E0",
"E 	c #4B4B4B",
"F 	c #F60000",
"G 	c #EA0000",
"H 	c #AC0000",
"I 	c #050000",
"J 	c #080707",
"K 	c #747474",
"L 	c #858585",
"M 	c #292929",
"N 	c #242424",
"O 	c #191919",
"P 	c #5F5F5F",
"Q 	c #B1B1B1",
"R 	c #BA0000",
"S 	c #555555",
"T 	c #838383",
"U 	c #535353",
"V 	c #323232",
"W 	c #222222",
"X 	c #5E5E5E",
"Y 	c #F4F4F4",
"Z 	c #CF0000",
"` 	c #D40000",
" .	c #F80000",
"..	c #F50000",
"+.	c #000E0E",
"@.	c #0E1919",
"#.	c #1E2020",
"$.	c #060606",
"%.	c #B2B2B2",
"&.	c #A7A7A7",
"*.	c #DC1F1F",
"=.	c #C10000",
"-.	c #B90000",
";.	c #CE0000",
">.	c #CD0000",
",.	c #E40000",
"'.	c #A34F4F",
").	c #250000",
"!.	c #980000",
"~.	c #B40000",
"{.	c #3E0000",
"].	c #363838",
"^.	c #F4F5F5",
"/.	c #040404",
"(.	c #8A8282",
"_.	c #905252",
":.	c #8B1212",
"<.	c #8F0000",
"[.	c #992C2C",
"}.	c #896A6A",
"|.	c #2C0000",
"1.	c #F30000",
"2.	c #DA6161",
"3.	c #606363",
"4.	c #4F4F4F",
"5.	c #3B4141",
"6.	c #4F5757",
"7.	c #262B2B",
"8.	c #9F0101",
"9.	c #D60000",
"0.	c #FB0000",
"a.	c #DF0303",
"b.	c #0C0404",
"c.	c #343434",
"d.	c #1D1D1D",
"e.	c #5A4141",
"f.	c #BD0000",
"g.	c #AD0000",
"h.	c #C20000",
"i.	c #962C2C",
"j.	c #0B0C0C",
"k.	c #848484",
"l.	c #A6A6A6",
"m.	c #E3E3E3",
"n.	c #FFFFFF",
"o.	c #CECECE",
"p.	c #1B1B1B",
"q.	c #131414",
"r.	c #644E4E",
"s.	c #C41515",
"t.	c #E90A0A",
"u.	c #E70808",
"v.	c #DB1010",
"w.	c #975050",
"x.	c #D1DBDB",
"y.	c #030202",
"z.	c #1C1C1C",
"A.	c #5A5A5A",
"B.	c #D0D0D0",
"C.	c #F0F0F0",
"D.	c #1A1C1C",
"E.	c #403A3A",
"F.	c #494040",
"G.	c #272727",
"H.	c #9C9E9E",
"I.	c #C0C0C0",
"J.	c #181818",
"K.	c #A2A2A2",
"L.	c #E1E1E1",
"M.	c #B0B0B0",
"N.	c #8F8F8F",
"O.	c #0A0A0A",
"P.	c #0E0E0E",
"Q.	c #3C3C3C",
"R.	c #ABABAB",
"S.	c #E8E8E8",
"T.	c #949494",
"U.	c #565656",
"V.	c #515151",
"W.	c #888888",
"X.	c #EDEDED",
"Y.	c #707070",
"Z.	c #A3A3A3",
"`.	c #363636",
"                                  . +                           ",
"                              @ # $ % & @                       ",
"                              * @ @ @ @ @                       ",
"                              = * @ @ @ -                       ",
"                              ; @ @ * @ >                       ",
"                                , @ @ ' )                       ",
"                                  ! ) ~                         ",
"                                  @ {                           ",
"                                  @ ]                           ",
"                                  @ ^                           ",
"                                  - /                           ",
"                              ( _ : < [ (                       ",
"                            ( ( } | 1 2 ( (                     ",
"                            3 ( ( ( ( ( ( 4                     ",
"                          ( 5 6 7 8 8 9 0 a (                   ",
"                        ( ( b c ( d d ( e f ( ( g h             ",
"                      ( ( ( a i ( ( ( ( j k ( ( l m n           ",
"                  ( o p ( ( 6 q ( ( ( ( r s ( t 9 s u           ",
"                  v w x y z A B ( ( ( ( ( ( q C ( D E           ",
"          @ * @ F G H I J A s K L M ( ( ( ( N O P Q (           ",
"          ] @ * @ * @ R ( ( ( ( ( S T U V W X g Y N (           ",
"          Z ` @ @ @  ...( ( ( ( ( ( ( +.@.#.$.%.&.( (           ",
"          *.=.-.;.>.,.'.( ( ( ( ).!.' ^ ~.{.].^./.(             ",
"          (._.:.<.[.}.W ( ( ( |.1.@ @ @ @ - 2.3.(               ",
"          4.( 5.6.7.( ( ( ( ( 8.9.{ @ @ @ 0.a.b.(               ",
"          c.q ( ( ( d.A ( ( ( e.G f.g.h.>.@ i.j.(               ",
"          ( S k.l.m.n.n.o.7 p.q.r.s.t.u.v.w.x.y.                ",
"              B z.A.B.n.n.n.C.s w D.E.F.G.H.I.                  ",
"                J.( ( M K.L.n.M.g ( ( ( ( N.n.                  ",
"                        O.P.Q.R.S.T.U.V.W.X.                    ",
"                          N m ( $.Y.K.Z.8 `.                    ",
"                                  i $.O.                        "};
